<svg id="Layer_1" data-name="Layer 1" xmlns="http://www.w3.org/2000/svg" viewBox="0 0 500 500"><defs><style>.cls-1{fill:#fcfcfc;}.cls-2{fill:#233e80;}.cls-3{fill:#1f305f;}.cls-4{fill:#414352;}.cls-5{fill:#525663;}.cls-6{fill:#353844;}.cls-7{fill:#4880c1;}.cls-8{fill:#4f5768;}.cls-9{fill:#6fafdf;}.cls-10{fill:#5895cf;}.cls-11{fill:#1d4a9f;}.cls-12{fill:#fff;}.cls-13{fill:#3b6db4;}.cls-14{fill:#a3a3a3;}</style></defs><title>avatar3</title><rect class="cls-1" x="-71.21" y="-687.42" width="1977.46" height="1238.27"/><path class="cls-2" d="M370.62,162.43l40.58-11.27a4.35,4.35,0,0,1,5.52,4.19V255.83l-33.89-28.62Z"/><path class="cls-3" d="M390,157.05c5.31,5.56,8.62,13.17,11.61,20,3.24,7.49,6.4,15,9.22,22.69,2,5.46,4.09,11.2,5.91,17.08v39l-33.89-28.62-12.21-64.78Z"/><path class="cls-4" d="M362.67,405.32q1.56-24.46,1.8-49a12,12,0,0,0-.94-5.85,12.34,12.34,0,0,0-3.13-3.36l-20.47-17a515.4,515.4,0,0,1,68.49-21.25,221.18,221.18,0,0,1-3.66,79.77,7.78,7.78,0,0,1-1.58,3.67,8.08,8.08,0,0,1-3,1.77A232.65,232.65,0,0,1,362.67,405.32Z"/><path class="cls-5" d="M384.94,315c3.85,11.51,4.23,24.44,4.21,36.25a209.85,209.85,0,0,1-2,31.49c-.89,5.71-2.31,11.38-3.35,17.09q-10.38,3.23-21,5.48,1.58-24.46,1.81-49a11.85,11.85,0,0,0-.95-5.85,12.19,12.19,0,0,0-3.13-3.36L340,330.1Q362.11,321.52,384.94,315Z"/><path class="cls-6" d="M397.41,334.89c-8,3.29-16.28,6.05-24.3,9.37-3.6,1.49-7.18,3-10.77,4.54a22.74,22.74,0,0,0-1.86-1.68L340,330.1a515.86,515.86,0,0,1,68.49-21.25c1,7.17,1.6,14.39,1.87,21.62A96.58,96.58,0,0,0,397.41,334.89Z"/><path class="cls-2" d="M128.2,162.43,87.62,151.16a4.35,4.35,0,0,0-5.52,4.19V255.83L116,227.21Z"/><path class="cls-3" d="M108.84,157.05c-5.31,5.56-8.63,13.17-11.61,20-3.24,7.49-6.41,15-9.22,22.69-2,5.46-4.09,11.2-5.91,17.08v39L116,227.21l12.21-64.78Z"/><path class="cls-7" d="M106,300.55a127.61,127.61,0,0,0,18,5.85c15.87,3.91,32.27,5.57,48,10,3.6,1,7.13,2.24,10.53.17a59.49,59.49,0,0,0,7.54-5.49c4.55-3.87,9.24-7.62,13.69-11.59,9.29-8.29,18.38-18.15,29.58-23.89,12.08-6.19,23-4.36,33.86,3.59,10.43,7.65,20,16.75,29.54,25.46,10.11,9.22,21,21,35.75,19.56,13.93-1.39,27.69-6.84,41.36-9.82,5.24-1.14,10.49-2.34,15.7-3.69A137.82,137.82,0,0,0,400,257.88V233.56c0-76.39-62.31-138.88-138.47-138.88H237.27c-76.16,0-138.47,62.49-138.47,138.88v24.32a138.08,138.08,0,0,0,6.67,42.5A5.08,5.08,0,0,1,106,300.55Z"/><path class="cls-7" d="M400,233.56a138,138,0,0,0-8.32-47.3c-46.83-.5-99.55,17.22-141.67,32.66-42.49-15.58-95.76-33.46-142.89-32.63a137.85,137.85,0,0,0-8.31,47.27v24.32a138.08,138.08,0,0,0,6.67,42.5,5.08,5.08,0,0,1,.51.17,127.61,127.61,0,0,0,18,5.85c15.87,3.91,32.27,5.57,48,10,3.6,1,7.13,2.24,10.53.17a59.49,59.49,0,0,0,7.54-5.49c4.55-3.87,9.24-7.62,13.69-11.59,9.29-8.29,18.38-18.15,29.58-23.89,12.08-6.19,23-4.36,33.86,3.59,10.43,7.65,20,16.75,29.54,25.46,8.65,7.89,17.86,17.68,29.6,19.41,25.45-3.58,44.55-8.57,64.65-17a138,138,0,0,0,9-49.19Z"/><path class="cls-8" d="M332.45,324.21c13.93-1.39,27.69-6.84,41.36-9.82,5.24-1.14,10.49-2.34,15.7-3.69.5-1.2,1-2.41,1.44-3.63-20.1,8.42-39.2,13.41-64.65,17A25.14,25.14,0,0,0,332.45,324.21Z"/><path class="cls-9" d="M235.88,110.21h27a154.07,154.07,0,0,1,121.72,60c-23.07-44.73-69.68-75.48-123.1-75.48H237.27c-53.43,0-100,30.75-123.1,75.48C142.46,133.74,186.56,110.21,235.88,110.21Z"/><path class="cls-10" d="M179.93,107.17c-2.46-2-6.22.46-7.88,3.14-9.86,34-15,85.53-13.6,105.41a3.41,3.41,0,0,0,3.38,3.2h.24a3.41,3.41,0,0,0,3.14-3.67c-1.39-20.19,4.11-74.05,14.57-107.06A3.48,3.48,0,0,0,179.93,107.17Z"/><path class="cls-10" d="M318,107.17c2.45-2,6.22.46,7.88,3.14,9.85,34,15,85.53,13.59,105.41a3.4,3.4,0,0,1-3.37,3.2h-.24a3.42,3.42,0,0,1-3.15-3.67c1.39-20.19-4.11-74.05-14.56-107.06A3.17,3.17,0,0,1,318,107.17Z"/><path class="cls-4" d="M136.2,405.32q-1.56-24.46-1.8-49a12,12,0,0,1,.94-5.85,12.34,12.34,0,0,1,3.13-3.36l20.47-17a515.4,515.4,0,0,0-68.49-21.25,221.41,221.41,0,0,0,3.66,79.77,7.78,7.78,0,0,0,1.58,3.67,8.08,8.08,0,0,0,3,1.77A232.65,232.65,0,0,0,136.2,405.32Z"/><path class="cls-5" d="M113.93,315c-3.85,11.51-4.23,24.44-4.21,36.25a209.85,209.85,0,0,0,2,31.49c.89,5.71,2.31,11.38,3.35,17.09q10.38,3.23,21,5.48-1.58-24.46-1.81-49a11.85,11.85,0,0,1,.95-5.85,12.19,12.19,0,0,1,3.13-3.36l20.47-17Q136.76,321.52,113.93,315Z"/><path class="cls-6" d="M101.46,334.89c8,3.29,16.28,6.05,24.3,9.37,3.6,1.49,7.18,3,10.77,4.54a22.74,22.74,0,0,1,1.86-1.68l20.47-17a515.86,515.86,0,0,0-68.49-21.25c-1,7.17-1.6,14.39-1.87,21.62A96.58,96.58,0,0,1,101.46,334.89Z"/><path class="cls-11" d="M417.73,261.1c-.5-6.08-2.22-12-3.94-17.85q-5.7-19.31-11.62-38.55a6.67,6.67,0,0,0-6.15-4.63c-47.9-1.71-102.59,10.25-146,26.17-43.43-15.92-98.12-27.88-146-26.17a6.67,6.67,0,0,0-6.15,4.63q-5.92,19.25-11.62,38.55c-1.72,5.86-3.44,11.77-3.94,17.85a91.7,91.7,0,0,0,.15,12.62q1,17.73,2.09,35.47c33.71,17.47,58.29,25.06,100.16,30,0,0,41.77-34.62,61.43-46.37a24.16,24.16,0,0,0,3.9-2.7,24.16,24.16,0,0,0,3.9,2.7c19.66,11.75,61.43,46.37,61.43,46.37,41.87-4.93,66.45-12.52,100.16-30q1-17.74,2.09-35.47A91.7,91.7,0,0,0,417.73,261.1Z"/><path class="cls-2" d="M345.81,238.21a31,31,0,0,1,24.91,15.56,28.18,28.18,0,0,1-1.35,28.87,34.3,34.3,0,0,1-13,10.84c-17.56,8.81-39.17,5.48-57-2.81-6.66-3.1-13.11-6.92-18.11-12.25s-8.48-12.33-8.42-19.59l49.51-16.13C330,240.22,337.81,237.71,345.81,238.21Z"/><path class="cls-12" d="M340.34,232.23a30.93,30.93,0,0,1,24.91,15.57,28.18,28.18,0,0,1-1.35,28.87,34.3,34.3,0,0,1-13,10.84c-17.56,8.81-39.17,5.48-57-2.81-6.66-3.1-13.11-6.93-18.11-12.26s-8.48-12.32-8.42-19.59l49.52-16.13C324.5,234.24,332.34,231.73,340.34,232.23Z"/><path class="cls-2" d="M417.73,261.1c-.5-6.08-2.22-12-3.94-17.85q-5.7-19.31-11.62-38.55a6.49,6.49,0,0,0-1.1-2.06q3.24,10.7,6.4,21.4c1.73,5.86,3.45,11.77,3.94,17.85a90.11,90.11,0,0,1-.15,12.62L409.17,290C375.46,307.46,350.88,315,309,320c0,0-35.51-29.42-56.45-43.23-.05-1-5.07-1-5.12,0C226.5,290.55,191,320,191,320c-41.87-4.93-66.45-12.51-100.16-30q-1-17.75-2.09-35.47a90.11,90.11,0,0,1-.15-12.62c.49-6.08,2.21-12,3.94-17.85q3.16-10.71,6.4-21.4a6.49,6.49,0,0,0-1.1,2.06q-5.92,19.25-11.62,38.55c-1.72,5.86-3.44,11.77-3.94,17.85a91.7,91.7,0,0,0,.15,12.62q1,17.73,2.09,35.47c33.71,17.47,58.29,25.06,100.16,30,0,0,41.77-34.62,61.43-46.37a24.16,24.16,0,0,0,3.9-2.7,24.16,24.16,0,0,0,3.9,2.7c19.66,11.75,61.43,46.37,61.43,46.37,41.87-4.93,66.45-12.52,100.16-30q1-17.74,2.09-35.47A91.7,91.7,0,0,0,417.73,261.1Z"/><path class="cls-13" d="M401.66,203.52a6.69,6.69,0,0,0-5.64-3.45c-47.9-1.71-102.59,10.25-146,26.17-43.43-15.92-98.12-27.88-146-26.17a6.69,6.69,0,0,0-5.64,3.45,7.1,7.1,0,0,1,3.53-.79c49,2,103.67,18.05,147.25,37.5l0,.8.91-.41.91.41,0-.8c43.58-19.45,98.28-35.54,147.25-37.5A7.1,7.1,0,0,1,401.66,203.52Z"/><path class="cls-14" d="M320.11,243.13l-52.05,15.49a23.36,23.36,0,0,1-.69-5.77l49.52-16.13c7.61-2.48,15.45-5,23.45-4.49a31.36,31.36,0,0,1,22,11.28,36.56,36.56,0,0,0-15.66-4.91C337.67,238,328.76,240.56,320.11,243.13Z"/><path class="cls-2" d="M154.19,238.21a31,31,0,0,0-24.91,15.56,28.18,28.18,0,0,0,1.35,28.87,34.3,34.3,0,0,0,13,10.84c17.56,8.81,39.17,5.48,57-2.81,6.66-3.1,13.11-6.92,18.11-12.25s8.48-12.33,8.42-19.59L177.65,242.7C170,240.22,162.19,237.71,154.19,238.21Z"/><path class="cls-12" d="M159.66,232.23a30.93,30.93,0,0,0-24.91,15.57,28.18,28.18,0,0,0,1.35,28.87,34.3,34.3,0,0,0,13,10.84c17.56,8.81,39.17,5.48,57-2.81,6.66-3.1,13.11-6.93,18.11-12.26s8.48-12.32,8.42-19.59l-49.52-16.13C175.5,234.24,167.66,231.73,159.66,232.23Z"/><path class="cls-14" d="M179.89,243.13l52.05,15.49a23.36,23.36,0,0,0,.69-5.77l-49.52-16.13c-7.61-2.48-15.45-5-23.45-4.49a31.36,31.36,0,0,0-22,11.28,36.56,36.56,0,0,1,15.66-4.91C162.33,238,171.24,240.56,179.89,243.13Z"/></svg>