<svg id="Layer_1" data-name="Layer 1" xmlns="http://www.w3.org/2000/svg" viewBox="0 0 500 500"><defs><style>.cls-1{fill:#fcfcfc;}.cls-2{fill:#fdbc1e;}.cls-3{fill:#e19b26;}.cls-4{fill:#ae1f24;}.cls-5{fill:#6c0b1e;}.cls-6{fill:#1f3566;}.cls-7{fill:#17274f;}.cls-8{fill:#2e5389;}.cls-9{fill:#fff;}.cls-10{fill:#f8d608;}</style></defs><title>avatar2</title><rect class="cls-1" x="-698.73" y="-687.42" width="1977.46" height="1238.27"/><path class="cls-2" d="M265.7,81H242.52c-72.79,0-132.35,59.56-132.35,132.35v23.19a131.72,131.72,0,0,0,31.67,85.66c7.41-2.16,15.51-1.21,23,.62a125.77,125.77,0,0,1,26.05,9.1c10.26,5.14,19.38,12.7,28.47,19.64,6.44,4.91,11.5,10.13,14.93,17.06,1.32.09,5.32,5.14,15.19,5.14,10.29,0,15.49-4.87,15.49-4.87a34.88,34.88,0,0,1,10.55-13.64,131.82,131.82,0,0,1,22.65-14.46A167.37,167.37,0,0,1,338.37,326c8.79-1.91,18.4-3.54,27.79-3.56a131.67,131.67,0,0,0,31.9-85.92V213.36C398.06,140.57,338.5,81,265.7,81Z"/><path class="cls-3" d="M338.37,309.49a167.37,167.37,0,0,0-40.23,14.77,131.82,131.82,0,0,0-22.65,14.46,34.88,34.88,0,0,0-10.55,13.64s-5.2,4.88-15.49,4.88c-9.87,0-13.87-5.06-15.19-5.14-3.43-6.94-8.49-12.16-14.93-17.07-9.09-6.94-18.21-14.5-28.47-19.64a125.77,125.77,0,0,0-26.05-9.1c-7.46-1.83-15.56-2.78-23-.61A131.72,131.72,0,0,1,110.17,220v16.54a131.72,131.72,0,0,0,31.67,85.66c7.41-2.16,15.51-1.21,23,.62a125.77,125.77,0,0,1,26.05,9.1c10.26,5.14,19.38,12.7,28.47,19.64,6.44,4.91,11.5,10.13,14.93,17.06,1.32.09,5.32,5.14,15.19,5.14,10.29,0,15.49-4.87,15.49-4.87a34.88,34.88,0,0,1,10.55-13.64,131.82,131.82,0,0,1,22.65-14.46A167.37,167.37,0,0,1,338.37,326c8.79-1.91,18.4-3.54,27.79-3.56a131.67,131.67,0,0,0,31.9-85.92V220a131.71,131.71,0,0,1-31.9,85.93C356.77,306,347.16,307.59,338.37,309.49Z"/><path class="cls-3" d="M233.79,348.84a1.1,1.1,0,0,0,1.86-.82c-.8-27.14-1.86-54.5-8.88-80.71-7.29-27.16-21.69-53.37-44.72-69.51-16.21-11.36-35.79-17.2-51.92-28.67a85.31,85.31,0,0,1-9.3-7.67,131.14,131.14,0,0,0-10.66,51.9v23.19a131.27,131.27,0,0,0,20.39,70.33,133.67,133.67,0,0,0,17.33,4.65C183.82,318.84,221.72,337.15,233.79,348.84Z"/><path class="cls-3" d="M398.06,213.36a131.22,131.22,0,0,0-13.32-57.69,86.4,86.4,0,0,1-14.87,13.46C353.74,180.6,334.16,186.44,318,197.8c-23,16.14-37.43,42.35-44.72,69.51-7,26.21-8.08,53.57-8.88,80.71a1.1,1.1,0,0,0,1.86.82c12.07-11.69,50-30,85.9-37.31a115.4,115.4,0,0,0,28.34-9.24,131.22,131.22,0,0,0,17.61-65.74Z"/><path class="cls-4" d="M163.62,306s-5.35,58.8,8.19,108.79a3.32,3.32,0,0,1-5.24,3.48l-22.24-17.36a8.66,8.66,0,0,1-3.07-4.71L115.93,295.48Z"/><path class="cls-5" d="M154.71,354c2.86,1.34,5.72,2.69,8.54,4.11a390.41,390.41,0,0,1,.37-52.09l-47.69-10.53,11.57,46C137,344.65,145.72,349.77,154.71,354Z"/><path class="cls-6" d="M80,128.9c.37-3.7.83-7.58,3-10.63l.06-.09c3-4.1,9.49-2,9.79,3,1.54,26.56,15.54,52.24,37.26,67.67,16.13,11.47,35.71,17.31,51.92,28.67,23,16.14,37.43,42.35,44.72,69.51,7,26.21,8.08,53.57,8.88,80.71a1.1,1.1,0,0,1-1.86.82c-12.07-11.69-50-30-85.9-37.3-18.61-3.79-38-10.94-49.42-26.11-7.5-9.94-10.34-22.56-12.56-34.81A502.69,502.69,0,0,1,80,128.9Z"/><path class="cls-7" d="M117.33,287.57c-6.49-10.63-8.1-23.46-9.11-35.88a510.06,510.06,0,0,1,0-85.45,90.63,90.63,0,0,1-15.34-45c-.3-5.07-6.8-7.13-9.79-3l-.06.09c-2.15,3-2.61,6.93-3,10.63a502.69,502.69,0,0,0,5.87,141.47c2.22,12.25,5.06,24.87,12.56,34.81,11.43,15.17,30.81,22.32,49.42,26.11,35.93,7.3,73.83,25.61,85.9,37.3a1.1,1.1,0,0,0,1.86-.82q-.19-6.76-.45-13.57c-16.12-12.33-43.94-27.46-71.23-35.85C145.82,312.77,127.23,303.77,117.33,287.57Z"/><path class="cls-8" d="M182.05,217.55c-16.21-11.36-35.79-17.2-51.92-28.67a87.82,87.82,0,0,1-22.43-23.41,5.75,5.75,0,0,1-.72.15,173.78,173.78,0,0,0,38,41.84c15.86,12.63,34.79,23.62,48.56,39,14.3,16,28.57,32.87,36.36,54.24-.88-4.58-1.9-9.13-3.11-13.65C219.48,259.9,205.08,233.69,182.05,217.55Z"/><path class="cls-7" d="M160,274.1,166.74,310a1.13,1.13,0,0,0,.74.84l47,15.11c1.2.51,4.88-3.76,4.88-3.76a.71.71,0,0,0-.22-.6L164.47,269C163.76,269.65,159.83,273.06,160,274.1Z"/><path class="cls-9" d="M219.65,321.64l.38-2.95a1.08,1.08,0,0,0-.35-1L166,269a1.11,1.11,0,0,0-1.83,1l6.72,35.9a1.1,1.1,0,0,0,.73.85l46.6,15.8A1.11,1.11,0,0,0,219.65,321.64Z"/><path class="cls-4" d="M336.38,306s5.35,58.8-8.19,108.79a3.32,3.32,0,0,0,5.24,3.48l22.24-17.36a8.66,8.66,0,0,0,3.07-4.71l25.33-100.73Z"/><path class="cls-5" d="M345.29,354c-2.86,1.34-5.72,2.69-8.54,4.11a390.41,390.41,0,0,0-.37-52.09l47.69-10.53-11.57,46C363.05,344.65,354.28,349.77,345.29,354Z"/><path class="cls-6" d="M420,128.9c-.37-3.7-.83-7.58-3-10.63l-.06-.09c-3-4.1-9.49-2-9.79,3-1.54,26.56-15.54,52.24-37.26,67.67-16.13,11.47-35.71,17.31-51.92,28.67-23,16.14-37.43,42.35-44.72,69.51-7,26.21-8.08,53.57-8.88,80.71a1.1,1.1,0,0,0,1.86.82c12.07-11.69,50-30,85.9-37.3,18.61-3.79,38-10.94,49.42-26.11,7.5-9.94,10.34-22.56,12.56-34.81A502.69,502.69,0,0,0,420,128.9Z"/><path class="cls-7" d="M382.67,287.57c6.49-10.63,8.1-23.46,9.11-35.88a510.06,510.06,0,0,0,0-85.45,90.63,90.63,0,0,0,15.34-45c.3-5.07,6.8-7.13,9.79-3l.06.09c2.15,3,2.61,6.93,3,10.63a502.69,502.69,0,0,1-5.87,141.47c-2.22,12.25-5.06,24.87-12.56,34.81-11.43,15.17-30.81,22.32-49.42,26.11-35.93,7.3-73.83,25.61-85.9,37.3a1.1,1.1,0,0,1-1.86-.82q.19-6.76.45-13.57c16.12-12.33,43.94-27.46,71.23-35.85C354.18,312.77,372.77,303.77,382.67,287.57Z"/><path class="cls-8" d="M318,217.55c16.21-11.36,35.79-17.2,51.92-28.67a87.82,87.82,0,0,0,22.43-23.41,5.75,5.75,0,0,0,.72.15,173.78,173.78,0,0,1-38,41.84c-15.86,12.63-34.79,23.62-48.56,39-14.3,16-28.57,32.87-36.36,54.24.88-4.58,1.9-9.13,3.11-13.65C280.52,259.9,294.92,233.69,318,217.55Z"/><path class="cls-7" d="M340,274.1,333.26,310a1.13,1.13,0,0,1-.74.84l-47,15.11c-1.2.51-4.88-3.76-4.88-3.76a.71.71,0,0,1,.22-.6L335.53,269C336.24,269.65,340.17,273.06,340,274.1Z"/><path class="cls-9" d="M280.35,321.64l-.38-2.95a1.08,1.08,0,0,1,.35-1L334,269a1.11,1.11,0,0,1,1.83,1l-6.72,35.9a1.1,1.1,0,0,1-.73.85l-46.6,15.8A1.11,1.11,0,0,1,280.35,321.64Z"/><path class="cls-10" d="M241,98.85H267.2a149.4,149.4,0,0,1,118.33,58.47c-21.2-45-67-76.31-119.83-76.31H242.52c-52.79,0-98.62,31.33-119.82,76.31A149.4,149.4,0,0,1,241,98.85Z"/></svg>