<svg id="Layer_1" data-name="Layer 1" xmlns="http://www.w3.org/2000/svg" viewBox="0 0 500 500"><defs><style>.cls-1{fill:#fcfcfc;}.cls-2{fill:#ae1f24;}.cls-3{fill:#fff;}.cls-4{fill:#20292e;}.cls-5{fill:#c4c4c4;}.cls-6{fill:#171c1e;}.cls-7{fill:#fdbc1e;}.cls-8{fill:#ffe500;}</style></defs><title>avatar4</title><rect class="cls-1" x="-71.21" y="-69.36" width="1977.46" height="1238.27"/><path d="M115.8,112.16Q103.58,95.89,92.72,78.63c-2.79-4.44-6.82-9.57-12-8.67-6,1-7.48,8.93-7.4,15.05a422,422,0,0,0,25.23,138c2.4,2.33,6.54,1.85,9.21-.16s4.22-5.14,5.64-8.17c15.08-32.1,26.57-66.2,46.47-95.55-8.37-1.84-15.89,6.36-24.46,6.54C127.14,125.89,120.76,118.77,115.8,112.16Z"/><path class="cls-2" d="M133.12,212.66c6.38-15,13.1-29.78,20.45-44.27.28-.58.55-1.16.84-1.74l-.39.07c-8.22.87-15.18-5.68-20.69-11.85-9-10.12-33.84-38-40.6-47.2-3.62-4.93-4.62,17.67-4,23.75A422.07,422.07,0,0,0,116,244.49C121.18,233.61,127.11,223.12,133.12,212.66Z"/><path d="M384.2,112.16q12.23-16.27,23.08-33.53c2.79-4.44,6.82-9.57,12-8.67,6,1,7.48,8.93,7.4,15.05a422,422,0,0,1-25.23,138c-2.4,2.33-6.54,1.85-9.21-.16s-4.22-5.14-5.64-8.17c-15.08-32.1-26.57-66.2-46.47-95.55,8.37-1.84,15.89,6.36,24.46,6.54C372.86,125.89,379.24,118.77,384.2,112.16Z"/><path class="cls-2" d="M366.88,212.66c-6.38-15-13.1-29.78-20.45-44.27-.28-.58-.55-1.16-.84-1.74l.39.07c8.22.87,15.18-5.68,20.69-11.85,9-10.12,33.84-38,40.6-47.2,3.62-4.93,4.62,17.67,4,23.75A422.07,422.07,0,0,1,384,244.49C378.82,233.61,372.89,223.12,366.88,212.66Z"/><path d="M328.67,108.55a140.63,140.63,0,0,0-13.58-6.18c-39.73-15.58-90.51-15.55-130.18,0a140.63,140.63,0,0,0-13.58,6.18c-58,30.16-81,95.59-80.73,158.05C90.82,312,107.7,356.25,135,392.16a232.25,232.25,0,0,0,38.54,39.73c1,.82,2.5,1,4.55,1.85-7.59-11.78-15.52-21.88-21-33.16-8.15-16.75-2.39-28.77,15-33.8,21.81-6.33,42.06-15.08,59.29-30.6,6.08-5.47,11.31-8,16.6-7.53a23.62,23.62,0,0,0,4.12,0c5.29-.45,10.52,2.06,16.6,7.53,17.23,15.52,37.48,24.27,59.29,30.6,17.34,5,23.1,17.05,14.95,33.8-5.5,11.28-13.43,21.38-21,33.16,2.05-.81,3.54-1,4.55-1.85A232.25,232.25,0,0,0,365,392.16C392.3,356.25,409.18,312,409.4,266.6,409.7,204.14,386.63,138.71,328.67,108.55Z"/><path class="cls-3" d="M133,245.73c-2.61.6-5.22,1.29-7.83,2.05-9,2.61-10.51,9-7.35,16.84,8,20,19.22,37.73,37.8,49.64,21.58,13.83,47,13.18,67.89-1.83,2.63-1.9,5.38-5.76,5.44-8.76.49-25.22-15.84-41.76-37.43-52.43C173,242.12,152.83,241.14,133,245.73Z"/><path class="cls-4" d="M223.34,251.33c-17.3-30.26-50.75-84.67-67.43-111.45a4.47,4.47,0,0,0-5.91-1.55c-12.77,6.72-2.42,18.76,3.57,30.06,5.69,10.73,48.87,67.81,63.28,84.38C219.16,255.43,225.71,255.48,223.34,251.33Z"/><path class="cls-4" d="M106.08,319.35c8.48,26,17.84,53.29,38.62,71a19,19,0,0,1,3-19.19c7.75-9.22,19.3-11.21,34.07-15-15.13.54-30.91-4.21-43-11.08S116.38,328.67,106.08,319.35Z"/><path class="cls-5" d="M123.05,255.58q3.93-1.11,7.85-2c19.91-4.46,40.09-3.35,58.49,5.89,20.73,10.41,36.54,26.25,37.09,49.94a10.78,10.78,0,0,0,2.42-5.74c.49-25.22-15.84-41.76-37.43-52.43-18.45-9.12-38.64-10.1-58.52-5.51-2.61.6-5.22,1.29-7.83,2.05-6.89,2-9.38,6.22-8.74,11.63A13.59,13.59,0,0,1,123.05,255.58Z"/><path class="cls-3" d="M367.05,245.73c2.61.6,5.22,1.29,7.83,2.05,9,2.61,10.51,9,7.35,16.84-8,20-19.22,37.73-37.8,49.64-21.58,13.83-47,13.18-67.89-1.83-2.63-1.9-5.38-5.76-5.44-8.76-.49-25.22,15.84-41.76,37.43-52.43C327,242.12,347.17,241.14,367.05,245.73Z"/><path class="cls-4" d="M283.15,252.77c14.41-16.57,57.59-73.65,63.28-84.38,6-11.3,16.34-23.34,3.57-30.06a4.47,4.47,0,0,0-5.91,1.55c-16.68,26.78-50.13,81.19-67.43,111.45C274.29,255.48,280.84,255.43,283.15,252.77Z"/><path class="cls-4" d="M393.92,319.35c-8.48,26-17.84,53.29-38.62,71a19,19,0,0,0-2.95-19.19c-7.75-9.22-19.3-11.21-34.07-15,15.13.54,30.91-4.21,43-11.08S383.62,328.67,393.92,319.35Z"/><path class="cls-5" d="M377,255.58q-3.93-1.11-7.85-2c-19.91-4.46-40.09-3.35-58.49,5.89-20.73,10.41-36.54,26.25-37.08,49.94a10.72,10.72,0,0,1-2.43-5.74c-.49-25.22,15.84-41.76,37.43-52.43,18.45-9.12,38.64-10.1,58.52-5.51,2.61.6,5.22,1.29,7.83,2.05,6.89,2,9.38,6.22,8.74,11.63A13.59,13.59,0,0,0,377,255.58Z"/><ellipse class="cls-6" cx="252.41" cy="130.94" rx="59.03" ry="31.53"/><polygon class="cls-7" points="250 212.97 256.54 226.22 271.17 228.35 260.59 238.67 263.09 253.24 250 246.36 236.91 253.24 239.41 238.67 228.83 228.35 243.46 226.22 250 212.97"/><polygon class="cls-8" points="233.81 231.23 248.44 229.11 253.2 219.45 250 212.97 243.46 226.22 228.83 228.35 239.41 238.67 236.91 253.24 242.93 250.08 244.39 241.55 233.81 231.23"/></svg>