<svg id="Layer_1" data-name="Layer 1" xmlns="http://www.w3.org/2000/svg" viewBox="0 0 500 500"><defs><style>.cls-1{fill:#fcfcfc;}.cls-2{fill:#6a36ce;}.cls-3{fill:#4e23b7;}.cls-4{fill:#7e59ef;}.cls-5{fill:#e7458f;}.cls-6{fill:#f076ac;}.cls-7{fill:#bc2b74;}.cls-8{fill:#f6b1cf;}.cls-9{fill:#fff;}.cls-10{fill:#ffe500;}</style></defs><title>avatar1</title><rect class="cls-1" x="-698.73" y="-69.36" width="1977.46" height="1238.27"/><path class="cls-2" d="M396.65,337.25s-.43,29.13-13.27,54.77a2.81,2.81,0,0,1-2,1.51l-67.86,12.26a2.81,2.81,0,0,1-3.23-2.05c-2.74-10.16-14.2-48.55-35.63-66.49Z"/><path class="cls-3" d="M274.63,337.25h122a146.73,146.73,0,0,1-4,28.52c-16.17,15.48-52.89,18.11-72.54,15-6.3-1-12.89-2.81-19.47-4.53C294.72,362.33,286.1,346.86,274.63,337.25Z"/><path class="cls-2" d="M261.15,97.76H238c-72.79,0-132.35,59.56-132.35,132.35V253.3A131.65,131.65,0,0,0,137.29,339c7.4-2.16,15.5-1.21,23,.62a125.89,125.89,0,0,1,26,9.1A102.41,102.41,0,0,1,199.74,357c28.33-18.85,65-15.26,95,0a166.24,166.24,0,0,1,39.09-14.21c8.79-1.91,18.4-3.54,27.8-3.56A131.71,131.71,0,0,0,393.5,253.3V230.11C393.5,157.32,333.94,97.76,261.15,97.76Z"/><path class="cls-3" d="M230.39,345.18c-1-20.64-2.85-41.21-8.18-61.12-7.28-27.16-21.69-53.37-44.71-69.51-16.21-11.36-35.8-17.2-51.93-28.67a85.31,85.31,0,0,1-9.3-7.67,131.31,131.31,0,0,0-10.66,51.9V253.3A131.3,131.3,0,0,0,126,323.64a135.24,135.24,0,0,0,17.33,4.64,256,256,0,0,1,65.36,23.59A77.3,77.3,0,0,1,230.39,345.18Z"/><path class="cls-3" d="M380.18,172.42a86.4,86.4,0,0,1-14.87,13.46c-16.13,11.47-35.71,17.31-51.92,28.67-23,16.14-37.43,42.35-44.71,69.51-5.37,20-7.25,40.72-8.2,61.47a115.46,115.46,0,0,1,22.18,6.09,256.22,256.22,0,0,1,64.9-23.34c9.64-2,19.49-4.82,28.33-9.24A131.22,131.22,0,0,0,393.5,253.3V230.11A131.08,131.08,0,0,0,380.18,172.42Z"/><path class="cls-4" d="M236.47,115.6h26.17A149.38,149.38,0,0,1,381,174.08c-21.2-45-67-76.32-119.82-76.32H238c-52.79,0-98.62,31.33-119.82,76.32A149.38,149.38,0,0,1,236.47,115.6Z"/><path class="cls-2" d="M102.71,337.25S103.14,366.38,116,392a2.79,2.79,0,0,0,2,1.51l67.86,12.26a2.81,2.81,0,0,0,3.23-2.05c2.74-10.16,14.2-48.55,35.63-66.49Z"/><path class="cls-3" d="M224.73,337.25h-122a146.19,146.19,0,0,0,4,28.52c16.18,15.48,52.9,18.11,72.55,15,6.3-1,12.89-2.81,19.47-4.53C204.64,362.33,213.25,346.86,224.73,337.25Z"/><path class="cls-5" d="M403.13,266.62c-.45-2.6-.93-5.2-1.42-7.79-12.54,2.77-24,5.88-35.14,8.92-8.37,2.3-16.37,4.22-25.36,7.77-5.69,2.25-11.26,4.86-17.16,6.49-9.23,2.55-19,2.63-28.21,5.3-12.41,3.61-23.15,11.86-31.22,21.95a107.4,107.4,0,0,0-15.07,26.46,107,107,0,0,0-15.06-26.46c-8.07-10.09-18.81-18.34-31.22-21.95-9.19-2.67-19-2.75-28.21-5.3-5.9-1.63-11.47-4.24-17.16-6.49-9-3.55-17-5.47-25.36-7.77-11.12-3-22.6-6.15-35.14-8.92-.49,2.59-1,5.19-1.42,7.79-5.25,30.21-10.41,54.72,6.73,80.29,13.13,19.61,55,23.06,76.51,19.61,25.21-4.06,55.19-20.71,70.07,5.23h.53c14.88-25.94,44.86-9.29,70.07-5.23,21.48,3.45,63.38,0,76.51-19.61C413.54,321.34,408.38,296.83,403.13,266.62Z"/><path class="cls-6" d="M422.59,174c-1.45,1.9-2.9,3.81-4.44,5.65-13.22,15.77-32.22,25.59-51.5,32.8s-39.38,12.25-58.16,20.67-36.65,20.83-46.64,38.83c-7.21,13-9.85,28-11.35,42.75q-.57,5.73-.95,11.48-.36-5.75-1-11.48c-1.49-14.78-4.13-29.77-11.34-42.75-10-18-27.85-30.4-46.64-38.83s-38.88-13.46-58.16-20.67-38.28-17-51.5-32.8c-1.54-1.84-3-3.75-4.44-5.65-4,15.59-7.83,31.65-5.75,47.59s11.44,32,26.63,37.29c12.54,2.77,24,5.88,35.14,8.92l26.71,3.85c20.63,3,43.13,6.95,57.41,21.7a69.75,69.75,0,0,1,17.83,16,105.55,105.55,0,0,1,14.63,25.43L249,337l.52-1.26c.18.42.36.84.53,1.26,0-.77-.07-1.53-.09-2.29a105.55,105.55,0,0,1,14.63-25.43,69.75,69.75,0,0,1,17.83-16c14.28-14.75,36.78-18.73,57.41-21.7l26.71-3.85c11.12-3,22.6-6.15,35.14-8.92,15.19-5.31,24.55-21.34,26.63-37.29S426.54,189.54,422.59,174Z"/><path class="cls-7" d="M145,281.8a88.62,88.62,0,0,0,17.58-4.35c-1.57-.65-3.14-1.31-4.72-1.93-9-3.55-17-5.47-25.36-7.77-11.12-3-22.6-6.15-35.14-8.92-.49,2.59-1,5.19-1.42,7.79q-.54,3.11-1.07,6.14C110.24,279.75,128.47,283.83,145,281.8Z"/><path class="cls-7" d="M218.37,303.71c-.79-1-1.62-2-2.48-2.93-13.89-15.12-36.27-19.69-56.82-23.2L132.47,273a79,79,0,0,0,7.22,39.87c10.42,22.14,33.74,32.85,57.91,30.88C220.09,341.94,233.32,323,218.37,303.71Z"/><path class="cls-8" d="M247.34,304.4c-1.7-11.34-4.54-22.52-10.08-32.5-10-18-27.85-30.4-46.64-38.83-16.51-7.4-34-12.19-51.13-18.14h0S237.94,253,247.34,304.4Z"/><path class="cls-9" d="M219.22,296.17c-.82-1-1.68-2-2.56-2.87-14.28-14.75-36.78-18.73-57.41-21.7l-26.71-3.85a79.08,79.08,0,0,0,8.27,39.67c11,21.86,34.58,31.95,58.7,29.34C221.94,334.34,234.67,315,219.22,296.17Z"/><path class="cls-7" d="M354.07,281.8a88.62,88.62,0,0,1-17.58-4.35c1.57-.65,3.14-1.31,4.72-1.93,9-3.55,17-5.47,25.36-7.77,11.12-3,22.6-6.15,35.14-8.92.49,2.59,1,5.19,1.42,7.79q.54,3.11,1.07,6.14C388.87,279.75,370.64,283.83,354.07,281.8Z"/><path class="cls-7" d="M280.74,303.71c.79-1,1.62-2,2.48-2.93,13.89-15.12,36.27-19.69,56.82-23.2l26.6-4.55a79,79,0,0,1-7.22,39.87C349,335,325.68,345.75,301.51,343.78,279,341.94,265.79,323,280.74,303.71Z"/><path class="cls-8" d="M251.77,304.4c1.7-11.34,4.54-22.52,10.08-32.5,10-18,27.85-30.4,46.64-38.83,16.51-7.4,34-12.19,51.13-18.14h0S261.17,253,251.77,304.4Z"/><path class="cls-9" d="M279.89,296.17c.82-1,1.68-2,2.56-2.87,14.28-14.75,36.78-18.73,57.41-21.7l26.71-3.85a79.08,79.08,0,0,1-8.27,39.67c-11,21.86-34.58,31.95-58.7,29.34C277.17,334.34,264.44,315,279.89,296.17Z"/><ellipse class="cls-3" cx="253.93" cy="179.16" rx="16.21" ry="27.74"/><ellipse class="cls-10" cx="249.55" cy="174.08" rx="16.21" ry="27.74"/></svg>