<svg id="Layer_1" data-name="Layer 1" xmlns="http://www.w3.org/2000/svg" viewBox="0 0 500 500"><defs><style>.cls-1{fill:#fcfcfc;}.cls-2{fill:#83161f;}.cls-3{fill:#660616;}.cls-4{fill:#991a30;}.cls-5{fill:#73be44;}.cls-6{fill:#579e44;}.cls-7{fill:#1f353a;}.cls-8{fill:#2e401a;}.cls-9{fill:#334d54;}.cls-10{fill:#9dcd69;}.cls-11{fill:#f4ea24;}.cls-12{fill:#477078;}.cls-13{fill:#b3d576;}</style></defs><title>avatar6</title><rect class="cls-1" x="-1352.8" y="-687.42" width="1977.46" height="1238.27"/><path class="cls-2" d="M372.87,228.88A324,324,0,0,0,368,189.37l53.35-22a3.26,3.26,0,0,1,4.5,3.22l-1.93,31a3.28,3.28,0,0,1-1.65,2.64l-49.06,27.88C373.06,231,373,230,372.87,228.88Z"/><path class="cls-3" d="M376,227.06c-.53-7.14-1.17-14.23-2-21.28l42.63-17.62a3.26,3.26,0,0,1,4.5,3.22l-.86,14-43.95,25C376.16,229.22,376.05,228.14,376,227.06Z"/><path class="cls-4" d="M368,189.37l53.35-22a3.26,3.26,0,0,1,4.5,3.22l-.23,3.7-56.16,23.21Q368.75,193.41,368,189.37Z"/><path class="cls-2" d="M376,227.06q-.56-7.47-1.31-14.87l35.43-14.64a3.26,3.26,0,0,1,4.5,3.21l-1.93,31.06a3.28,3.28,0,0,1-1.65,2.64L378.42,253C378.26,244.33,376.61,235.59,376,227.06Z"/><path class="cls-4" d="M374.66,212.19l35.43-14.64a3.26,3.26,0,0,1,4.5,3.21l-.23,3.71-38.91,16.07Q375.09,216.36,374.66,212.19Z"/><path class="cls-3" d="M364.89,257c-.53-7.14-1.17-14.23-2-21.28l42.63-17.62a3.27,3.27,0,0,1,4.51,3.22l-.87,14-43.95,25C365.08,259.19,365,258.11,364.89,257Z"/><path class="cls-2" d="M364.89,256.66q-.56-7.47-1.31-14.87L399,227.15a3.26,3.26,0,0,1,4.5,3.21l-1.93,31.06a3.28,3.28,0,0,1-1.65,2.64l-32.59,18.52C367.19,273.93,365.54,265.19,364.89,256.66Z"/><path class="cls-4" d="M363.58,242.15,399,227.52a3.26,3.26,0,0,1,4.5,3.21l-.23,3.71-38.91,16.07C364.14,247.72,363.87,244.93,363.58,242.15Z"/><path class="cls-2" d="M126,228.88a322.1,322.1,0,0,1,4.93-39.51l-53.35-22a3.27,3.27,0,0,0-4.51,3.22l1.94,31a3.25,3.25,0,0,0,1.64,2.64l49.06,27.88C125.8,231,125.9,230,126,228.88Z"/><path class="cls-3" d="M122.88,227.06c.54-7.14,1.17-14.23,2-21.28L82.28,188.16a3.26,3.26,0,0,0-4.5,3.22l.87,14,43.94,25C122.7,229.22,122.8,228.14,122.88,227.06Z"/><path class="cls-4" d="M130.91,189.37l-53.35-22a3.27,3.27,0,0,0-4.51,3.22l.23,3.7,56.17,23.21Q130.1,193.41,130.91,189.37Z"/><path class="cls-2" d="M122.88,227.06q.56-7.47,1.31-14.87L88.76,197.55a3.26,3.26,0,0,0-4.5,3.21l1.93,31.06a3.28,3.28,0,0,0,1.65,2.64L120.44,253C120.59,244.33,122.24,235.59,122.88,227.06Z"/><path class="cls-4" d="M124.19,212.19,88.76,197.55a3.26,3.26,0,0,0-4.5,3.21l.23,3.71,38.91,16.07Q123.76,216.36,124.19,212.19Z"/><path class="cls-3" d="M134,257c.54-7.14,1.17-14.23,2-21.28L93.36,218.13a3.26,3.26,0,0,0-4.5,3.22l.86,14,43.95,25C133.78,259.19,133.88,258.11,134,257Z"/><path class="cls-2" d="M134,256.66q.56-7.47,1.31-14.87L99.84,227.15a3.26,3.26,0,0,0-4.5,3.21l1.93,31.06a3.28,3.28,0,0,0,1.65,2.64l32.59,18.52C131.67,273.93,133.32,265.19,134,256.66Z"/><path class="cls-4" d="M135.27,242.15,99.84,227.52a3.26,3.26,0,0,0-4.5,3.21l.23,3.71,38.91,16.07Q134.84,246.33,135.27,242.15Z"/><path class="cls-5" d="M186.56,317.15c-28.92-6.89-73.13-30.6-73.13-30.6h0c-1.85,33.85-12.94,83.66-12.94,83.66s106.67,37,135.93,49.18l-32.21-14.12Z"/><path class="cls-5" d="M294.61,405.27,262.4,419.39c29.26-12.23,135.21-51,135.21-51l-12.22-81.85s-44.21,23.71-73.13,30.6Z"/><path class="cls-6" d="M194.87,403.63c17.45,6.36,32.89,12.14,41.55,15.76l-32.21-14.12-17.65-88.12c-28.92-6.89-73.13-30.6-73.13-30.6h0c-.21,3.9-.55,8-1,12.25,13.2,6.72,44.6,22,66.91,27.36Z"/><path class="cls-6" d="M387,297.47l-1.63-10.92s-44.21,23.71-73.13,30.6l-17.65,89.2-32.21,13c8.64-3.61,24-9.53,41.25-16.08l15.63-78.06C342.08,319.82,374.36,304,387,297.47Z"/><path class="cls-7" d="M387.42,270.8c.42-6.44.72-12.91.85-19.36a394.5,394.5,0,0,0-6.09-61.67v0c-34.82,17.1-110.87,31.38-110.87,31.38l-21.89,33.34-21.89-33.34s-76.05-14.28-110.87-31.38v0a394.86,394.86,0,0,0-6.09,61.67c.22,11,1,22,1.91,32.92a88,88,0,0,1,.41,10.06c6.87,3.62,47.4,23.89,73.69,30.16l11.09,30.28h23.79l-10.69-51.34a378.73,378.73,0,0,1-41.95-15.7,231.93,231.93,0,0,1-32.1-18.27V235.27l76.62,20.87,36.09,46.66,36.51-47.56,76.2-20v34.28A231.93,231.93,0,0,1,330,287.82a379,379,0,0,1-41.94,15.7l-10.7,51.34h22.41l12.47-30.28c25-6,64.82-25.5,74.27-30.43C386.85,285.62,386.4,279,387.42,270.8Z"/><path class="cls-5" d="M382.18,182.34A394.5,394.5,0,0,1,388.27,244C388.68,223,387.26,202.15,382.18,182.34Z"/><path class="cls-5" d="M249.41,247l21.89-33.34s76.05-14.28,110.87-31.38A137.68,137.68,0,0,0,360.39,135c-25.18-34.66-65-55.67-106.59-55.67H245c-41.57,0-81.41,21-106.59,55.67a137.68,137.68,0,0,0-21.78,47.27c34.82,17.1,110.87,31.38,110.87,31.38Z"/><path class="cls-5" d="M110.55,244a395,395,0,0,1,6.09-61.67C111.56,202.15,110.14,223,110.55,244Z"/><polygon class="cls-8" points="262.4 419.39 262.4 419.39 262.4 419.39 262.4 419.39"/><path class="cls-8" d="M116.65,182.3v0Z"/><polygon class="cls-8" points="236.42 419.39 236.42 419.39 236.42 419.39 236.42 419.39"/><path class="cls-8" d="M386,281.35c-.15,1.53-.34,3.28-.58,5.2h0A230,230,0,0,0,388.27,244C388,256.49,387.13,269,386,281.35Z"/><path class="cls-8" d="M110.55,244a231.76,231.76,0,0,0,2.88,42.54c-.24-1.92-.43-3.67-.58-5.2C111.69,269,110.8,256.49,110.55,244Z"/><path class="cls-8" d="M382.17,182.3h0v0Z"/><path class="cls-9" d="M388.27,244a217.83,217.83,0,0,0-6.09-61.67v0c-34.82,17.1-110.87,31.38-110.87,31.38L249.41,247l-21.89-33.34S151.47,199.4,116.65,182.3v0A223.87,223.87,0,0,0,110.55,244c-.45,13,2.13,42.54,2.13,42.54s45,23.71,73.88,30.6l18.21,90.11,31.65,12.13h0l-25.67-123.3a378.73,378.73,0,0,1-41.95-15.7,231.93,231.93,0,0,1-32.1-18.27V227.84l79.88,20.3,32.83,44,32.83-44,79.88-20.3v34.28A231.93,231.93,0,0,1,330,280.39a379,379,0,0,1-41.94,15.7L262.4,419.39h0l31.78-12.48,18.08-89.76c28.92-6.89,74.41-30.92,74.41-30.92C386.91,284.31,388,256.49,388.27,244Z"/><path class="cls-10" d="M253.8,79.36H245c-53.45,0-99.84,33.3-121.31,81.11,27.72-37.73,71.17-62.15,119.8-62.15h11.8c48.63,0,92.08,24.42,119.8,62.15C353.64,112.66,307.25,79.36,253.8,79.36Z"/><path class="cls-11" d="M240,232.69,113,201c-.22,1.76-.54,3.57-.76,5.51l132.3,33.05Z"/><path class="cls-11" d="M385.9,200.88,258.84,232.66l-4.5,6.85,132.35-33C386.47,204.58,386.12,202.64,385.9,200.88Z"/><path class="cls-6" d="M227.52,213.68,249.41,247l21.89-33.34s76.05-14.28,110.87-31.38q-1.62-6.35-3.77-12.53c-36.24,16.32-107.1,29.62-107.1,29.62l-21.89,33.34-21.89-33.34s-70.86-13.3-107.1-29.62q-2.15,6.18-3.77,12.53C151.47,199.4,227.52,213.68,227.52,213.68Z"/><path class="cls-12" d="M330,289.59a232.48,232.48,0,0,0,32.1-18.26v-9.21A231.93,231.93,0,0,1,330,280.39a379,379,0,0,1-41.94,15.7L262.4,419.39h0l2.09-.82,23.59-113.28A376.65,376.65,0,0,0,330,289.59Z"/><path class="cls-12" d="M384.08,190.71a60.32,60.32,0,0,0-1.9-8.37v0c-34.82,17.1-110.87,31.38-110.87,31.38L249.41,247l-21.89-33.34S151.47,199.4,116.65,182.3v0c-.08.42-.84,3.11-1.86,8.1a9.92,9.92,0,0,0,1.87,1.06c34.82,17.11,110.87,31.39,110.87,31.39l21.89,33.34,21.89-33.34s75.41-14.16,110.43-31.17C381.81,191.58,383.62,191,384.08,190.71Z"/><path class="cls-12" d="M168.8,289.59a376.43,376.43,0,0,0,41.95,15.7L234.34,418.6l2.08.79h0l-25.67-123.3a378.73,378.73,0,0,1-41.95-15.7,231.93,231.93,0,0,1-32.1-18.27v9.21A232.48,232.48,0,0,0,168.8,289.59Z"/><path class="cls-13" d="M112.45,363.78c-1.11-15.14-1.58-51.64-1.58-51.64l-10.38,58.07,56.6,19.86Z"/><path class="cls-13" d="M335.6,391.31l62-22.91-8.49-56.87s-.85,29.82-3.86,48.56Z"/></svg>