<svg id="Layer_1" data-name="Layer 1" xmlns="http://www.w3.org/2000/svg" viewBox="0 0 500 500"><defs><style>.cls-1{fill:#fcfcfc;}.cls-2{fill:#811517;}.cls-3{fill:#ae1f24;}.cls-4{fill:none;}.cls-5{fill:#5c202a;}.cls-6{fill:#fdbc1e;}.cls-7{fill:#83161f;}.cls-8{fill:#a02132;}.cls-9{fill:#c92a36;}.cls-10{fill:#fff;}.cls-11{fill:#f5891f;}.cls-12{fill:#700e1b;}.cls-13{fill:#ffe500;}</style></defs><title>avatar5</title><rect class="cls-1" x="-1352.8" y="-69.36" width="1977.46" height="1238.27"/><path class="cls-2" d="M343.17,322l-5.71,2.88a6.54,6.54,0,0,1-7-.71l-72.85-59.05Z"/><path class="cls-2" d="M155.74,322l5.72,2.88a6.52,6.52,0,0,0,7-.71l72.85-59.05Z"/><path class="cls-2" d="M357.47,315.5a285.29,285.29,0,0,1-5,30.28,478.36,478.36,0,0,1-65.67,53.05c-11.64-5.48-23.94-11.87-37-13.41-.12,0-.24,0-.37,0s-.24,0-.36,0c-13.05,1.54-25.35,7.93-37,13.41a478.36,478.36,0,0,1-65.67-53.05,288.33,288.33,0,0,1-5-30.28,65.92,65.92,0,0,1-8.6-4c0,.34.1.68.13,1a290.92,290.92,0,0,0,6,40.79,479.56,479.56,0,0,0,65.67,53c11.65-5.48,24-11.87,37-13.41a8.88,8.88,0,0,1,7.84,3.61,8.9,8.9,0,0,1,7.85-3.61c13,1.54,25.35,7.93,37,13.41a478.36,478.36,0,0,0,65.67-53,289.57,289.57,0,0,0,6-40.79c0-.35.09-.69.13-1A65.49,65.49,0,0,1,357.47,315.5Z"/><path class="cls-2" d="M155.74,322l5.72,2.88a6.52,6.52,0,0,0,7-.71l72.85-59.05Z"/><path class="cls-3" d="M394.35,147.5c-6.44-27.89-23-52.27-45.63-70q2.49,29.41,5,58.82c.21,2.46-3.06,3.14-4.74,1.83l-24.08-18.8c-16.72,39.07-33.63,78.11-53.89,115.7h-.09c-.09,0-6.61,2-6.67,2.12l-14.78-13.25-14.77,13.25c-.07-.09-6.58-2.14-6.67-2.12h-.09c-20.26-37.59-37.17-76.63-53.89-115.7l-24.09,18.8c-1.67,1.31-4.94.63-4.74-1.83l5-58.82c-22.59,17.73-39.19,42.11-45.63,70-5,21.62-3.29,44.14-1.73,66q2.09,29.19,5.21,58.3c1.53,14.27,3.29,28.52,5.2,42.75,1.88,13.93,3.22,28.21,7.19,41.79.07.26.16.51.24.77a7.71,7.71,0,0,0,.49,1.6c8.58,26.1,54.11,66.48,116.91,92.76,3.87,1.62,18.92,1.62,22.78,0,62.81-26.28,108.34-66.66,116.92-92.76a7.71,7.71,0,0,0,.49-1.6l.24-.77c4-13.58,5.31-27.86,7.18-41.79q2.88-21.34,5.21-42.75,3.13-29.11,5.21-58.3C397.64,191.64,399.33,169.12,394.35,147.5ZM366,312.5a289.57,289.57,0,0,1-6,40.79,478.36,478.36,0,0,1-65.67,53c-11.64-5.48-23.94-11.87-37-13.41a111,111,0,0,0-15.69,0c-13,1.54-25.35,7.93-37,13.41a479.56,479.56,0,0,1-65.67-53,290.92,290.92,0,0,1-6-40.79c0-.35-.09-.69-.13-1,5.49,3.34,16.54,6.68,22,10,2.35,1.42,3.58.72,5.69.31,2.33-.46,48.34-33.3,73.23-51a27.41,27.41,0,0,1,31.36,0c24.9,17.66,70.91,50.5,73.24,51,2.11.41,3.34,1.11,5.68-.31,5.5-3.35,16.55-6.69,22-10C366,311.81,366,312.15,366,312.5Z"/><path class="cls-4" d="M149.93,138.15,174,119.35c16.72,39.07,33.63,78.11,53.89,115.7H228c.09,0,6.6,2,6.67,2.12l-8.1-16.32q-7.2-13.89-13.9-28l-37.34-75.2-26.21,15.86,3.56-57.94c-.7.52-1.4,1-2.09,1.59l-.42.33-5,58.82C145,138.78,148.26,139.46,149.93,138.15Z"/><path class="cls-5" d="M150.17,77.49h0l.42-.33Z"/><path class="cls-5" d="M152.68,75.57c-.7.53-1.4,1.06-2.09,1.6.69-.54,1.39-1.07,2.09-1.59Z"/><path class="cls-5" d="M212.67,192.86q6.72,14.08,13.9,28Z"/><path class="cls-5" d="M234.38,235.56q-4-7.32-7.81-14.7l8.1,16.32A2.42,2.42,0,0,0,234.38,235.56Z"/><path class="cls-5" d="M153,75.37l-.27.2h0Z"/><path class="cls-5" d="M155.83,73.29l.27-.19h0Z"/><path class="cls-5" d="M155.83,73.29c-.85.6-1.68,1.2-2.51,1.81C154.15,74.49,155,73.89,155.83,73.29Z"/><path class="cls-6" d="M153,75.37l.37-.27Z"/><path class="cls-4" d="M349,138.15l-24.08-18.8c-16.72,39.07-33.63,78.11-53.89,115.7h-.09c-.09,0-6.61,2-6.67,2.12l8.1-16.32q7.2-13.89,13.9-28l37.34-75.2,26.21,15.86-3.56-57.94c.7.52,1.39,1,2.09,1.59l.42.33q2.49,29.41,5,58.82C353.9,138.78,350.63,139.46,349,138.15Z"/><path class="cls-5" d="M348.72,77.49h0l-.42-.33Z"/><path class="cls-5" d="M346.21,75.57c.7.53,1.4,1.06,2.09,1.6-.7-.54-1.39-1.07-2.09-1.59Z"/><path class="cls-5" d="M286.22,192.86q-6.72,14.08-13.9,28Z"/><path class="cls-5" d="M264.51,235.56q4-7.32,7.81-14.7l-8.1,16.32A2.42,2.42,0,0,1,264.51,235.56Z"/><path class="cls-5" d="M345.93,75.37l.28.2h0Z"/><path class="cls-5" d="M343.06,73.29l-.27-.19h0Z"/><path class="cls-5" d="M343.06,73.29c.85.6,1.68,1.2,2.51,1.81C344.74,74.49,343.9,73.89,343.06,73.29Z"/><path class="cls-7" d="M342.79,73.1a142.09,142.09,0,0,0-81.43-25.77H237.53A142.09,142.09,0,0,0,156.1,73.1q-2.43,28.65-4.85,57.3l21.94-17.13a2.91,2.91,0,0,1,4.64,1.14c11.18,26.32,22.5,52.6,34.84,78.45l13.9,28q3.83,7.38,7.81,14.7a2.42,2.42,0,0,1,.29,1.62l.73.41c9-5.78,19.44-5.88,27.93.09l.89-.5a2.42,2.42,0,0,1,.29-1.62q4-7.32,7.81-14.7l13.9-28c12.34-25.85,23.66-52.13,34.84-78.45a2.91,2.91,0,0,1,4.64-1.14l21.94,17.13Z"/><path class="cls-6" d="M345.93,75.37l-.36-.27Z"/><path class="cls-8" d="M156.1,73.1h0c-.94.66-1.86,1.33-2.78,2l-.37.27-.27.21.27-.21-.27.2-2.05,1.57-.46.35h0c-1.22,1-2.41,1.94-3.59,2.93l-.21.16h0A131.7,131.7,0,0,0,121.11,109c2.13-2,4.3-4,6.54-5.87h0a1.83,1.83,0,0,1,.24-.19c1.4-1.18,2.8-2.34,4.24-3.47h0l.54-.41c.8-.63,1.61-1.24,2.43-1.85l.32-.25.43-.31c1.08-.81,2.18-1.6,3.28-2.37h0a167.84,167.84,0,0,1,96.23-30.45h28.15A167.83,167.83,0,0,1,359.74,94.3h0c1.11.77,2.2,1.56,3.29,2.37l.43.31.32.25c.82.61,1.63,1.22,2.43,1.85l.53.41h0c1.44,1.13,2.84,2.29,4.24,3.47a2.88,2.88,0,0,1,.24.19h0c2.25,1.89,4.42,3.86,6.55,5.87A131.49,131.49,0,0,0,352.51,80.6h0l-.2-.16q-1.77-1.49-3.59-2.93h0l-.46-.35-2.05-1.57-.28-.2.28.21-.28-.21-.36-.27c-.92-.68-1.84-1.35-2.78-2h0a142.09,142.09,0,0,0-81.43-25.77H237.53A142.09,142.09,0,0,0,156.1,73.1"/><path class="cls-2" d="M140.75,138.59c-.2,2.46,5.24,7.26,9.43,4.4,8.45-5.77,14.46-11.05,22.49-17.31,16.72,39.07,34.42,79.28,54.68,116.87h.1c.08,0,6.6,2,6.67,2.12a2.47,2.47,0,0,0-.29-1.62c-21.42-39.29-39.15-80.18-56.55-121.15a2.91,2.91,0,0,0-4.64-1.14L150.69,137.9q2.43-28.65,4.85-57.31c-.93.66-1.86,1.33-2.78,2-.12.09-.56-6.32-.68-6.23-.94.7-4.79,3.5-5.71,4.22C144.72,100.2,142.41,119,140.75,138.59Z"/><path class="cls-6" d="M145.19,136.32c-.2,2.46,3.07,3.14,4.74,1.83L174,119.35c16.72,39.07,33.63,78.11,53.89,115.7H228c.09,0,6.6,2,6.67,2.12a2.42,2.42,0,0,0-.29-1.62c-21.42-39.29-39.15-80.17-56.55-121.15a2.91,2.91,0,0,0-4.64-1.14L151.25,130.4q2.42-28.65,4.85-57.31c-.94.66-1.86,1.33-2.78,2l-.37.27c-.93.69-1.86,1.4-2.78,2.12Z"/><path class="cls-2" d="M358.14,138.59c.2,2.46-5.24,7.26-9.44,4.4-8.44-5.77-14.45-11.05-22.48-17.31C309.49,164.75,291.8,205,271.54,242.55h-.1c-.08,0-6.6,2-6.67,2.12a2.47,2.47,0,0,1,.29-1.62c21.42-39.29,39.15-80.18,56.55-121.15a2.91,2.91,0,0,1,4.64-1.14L348.2,137.9q-2.43-28.65-4.85-57.31c.93.66,1.86,1.33,2.78,2,.12.09.56-6.32.68-6.23.94.7,4.79,3.5,5.7,4.22C354.17,100.2,356.48,119,358.14,138.59Z"/><path class="cls-6" d="M353.69,136.32c.21,2.46-3.06,3.14-4.74,1.83l-24.08-18.8c-16.72,39.07-33.63,78.11-53.89,115.7h-.09c-.09,0-6.61,2-6.67,2.12a2.42,2.42,0,0,1,.29-1.62c21.42-39.29,39.14-80.17,56.55-121.15a2.91,2.91,0,0,1,4.64-1.14l21.94,17.13q-2.43-28.65-4.85-57.31c.94.66,1.86,1.33,2.78,2l.36.27c.94.69,1.87,1.4,2.79,2.12Q351.2,106.91,353.69,136.32Z"/><path class="cls-2" d="M234.67,237.18c-35.09-9.86-47.35-17.37-81.85-26.49-3.29-.87-6.78-1.67-10-.67-3.08.94-5.53,3.36-7.79,5.76-7.9,8.41-17.9,15.36-24.4,25.88-.68,1.12.66,8.28,0,9.33,13.22,15.32,24,22.76,38.61,36.62,3.28,3.12,7,6.38,11.43,6.43,3,0,5.81-1.46,8.48-2.91,31.39-17.06,44.82-31.92,63.12-41.87C237.19,246.57,237,242.52,234.67,237.18Z"/><path class="cls-9" d="M231.31,229.87c-35.09-9.86-44-19.4-78.49-28.51-3.29-.87-6.78-1.68-10-.68-3.08.95-5.53,3.37-7.79,5.77-8.74,9.3-17.59,24.26-24.4,35.21,13.22,15.32,24,22.76,38.61,36.62,3.28,3.12,7,6.38,11.43,6.42,3,0,5.81-1.45,8.48-2.9,31.39-17.06,45.3-31.06,63.61-41C237.68,238.1,233.66,234.19,231.31,229.87Z"/><path class="cls-10" d="M234.62,236.8c-28.12-7.79-54.3-14.31-81.73-20.7-2.62-.61-5.39-1.17-8-.47-2.44.66-4.39,2.36-6.19,4A139.4,139.4,0,0,0,120.1,241q15.77,16.1,33.17,30.69c2.62,2.19,5.58,4.47,9.1,4.5,2.38,0,4.61-1,6.73-2L227.91,246C231.85,244.14,236.5,240.54,234.62,236.8Z"/><path class="cls-2" d="M264.22,237.18c35.09-9.86,47.35-17.37,81.85-26.49,3.29-.87,6.78-1.67,10-.67,3.08.94,5.53,3.36,7.79,5.76,7.9,8.41,17.9,15.36,24.39,25.88.69,1.12-.65,8.28,0,9.33-13.21,15.32-24,22.76-38.6,36.62-3.29,3.12-7,6.38-11.44,6.43-3,0-5.8-1.46-8.47-2.91-31.39-17.06-44.82-31.92-63.12-41.87C261.7,246.57,261.85,242.52,264.22,237.18Z"/><path class="cls-9" d="M267.58,229.87c35.09-9.86,44-19.4,78.49-28.51,3.29-.87,6.78-1.68,10-.68,3.08.95,5.53,3.37,7.79,5.77,8.74,9.3,17.58,24.26,24.39,35.21-13.21,15.32-24,22.76-38.6,36.62-3.29,3.12-7,6.38-11.44,6.42-3,0-5.8-1.45-8.47-2.9-31.39-17.06-45.55-30.4-63.85-40.34C261,238.76,265.87,233.43,267.58,229.87Z"/><path class="cls-10" d="M264.27,236.8c28.12-7.79,54.3-14.31,81.73-20.7,2.62-.61,5.39-1.17,8-.47,2.44.66,4.39,2.36,6.19,4A139.94,139.94,0,0,1,378.79,241q-15.77,16.1-33.18,30.69c-2.61,2.19-5.57,4.47-9.09,4.5-2.38,0-4.61-1-6.73-2L271,246C267,244.14,262.39,240.54,264.27,236.8Z"/><path class="cls-6" d="M385.35,192.29,366.53,139a1.26,1.26,0,0,1,1.21-1.66l36.89-.3L389.32,99a1.26,1.26,0,0,1,1.22-1.71l34.87.43-5.34-47.53a1.29,1.29,0,0,1,2.48-.61l28.34,68.05a1.25,1.25,0,0,1-1.25,1.72L419.41,118,435,155.48a1.27,1.27,0,0,1-1.2,1.73l-34.87.12,13.35,22.41Z"/><path class="cls-11" d="M379.9,173.86l5.88,18.3,25-12.7-8.36-15.3a21.22,21.22,0,0,0-4.75-.56A20.31,20.31,0,0,0,379.9,173.86Z"/><ellipse class="cls-6" cx="401.36" cy="189.99" rx="20.24" ry="19.7"/><ellipse class="cls-11" cx="403.58" cy="192.16" rx="10.8" ry="10.51"/><ellipse class="cls-12" cx="401.36" cy="189.99" rx="9.13" ry="8.89"/><path class="cls-13" d="M407.84,175a20.63,20.63,0,0,1,8.55,1.86,20.39,20.39,0,0,0-15-6.54c-11.18,0-20.24,8.82-20.24,19.69a19.65,19.65,0,0,0,11.69,17.84,19.29,19.29,0,0,1-5.21-13.15C387.6,183.8,396.67,175,407.84,175Z"/><path class="cls-13" d="M425.41,97.67l-34.87-.43A1.26,1.26,0,0,0,389.32,99l1.92,4.78,34.83.32Z"/><path class="cls-13" d="M404.63,137l-36.89.3a1.26,1.26,0,0,0-1.21,1.66l1.73,4.9,38.79-.47Z"/><path class="cls-13" d="M420,49.79l.62,5.51a1.09,1.09,0,0,0,.07.3l24.67,62.79a1.24,1.24,0,0,0,1.1.78l3.23.14a1.21,1.21,0,0,0,1.2-1.66L422.41,49.21A1.24,1.24,0,0,0,420,49.79Z"/><path class="cls-6" d="M113.5,195.5l18.82-53.32a1.26,1.26,0,0,0-1.21-1.66l-36.89-.3,15.31-38.06a1.26,1.26,0,0,0-1.22-1.71l-34.87.43,5.34-47.54a1.29,1.29,0,0,0-2.47-.6L48,120.79a1.25,1.25,0,0,0,1.25,1.72l30.24-1.27L63.83,158.69A1.25,1.25,0,0,0,65,160.41l34.87.13L86.54,183Z"/><path class="cls-11" d="M119,177.07l-5.88,18.3-25-12.7,8.37-15.3a21.13,21.13,0,0,1,4.74-.56A20.31,20.31,0,0,1,119,177.07Z"/><ellipse class="cls-6" cx="97.5" cy="193.2" rx="20.24" ry="19.7"/><ellipse class="cls-11" cx="95.28" cy="195.37" rx="10.8" ry="10.51"/><ellipse class="cls-12" cx="97.5" cy="193.2" rx="9.13" ry="8.89"/><path class="cls-13" d="M91,178.19a20.63,20.63,0,0,0-8.55,1.86,20.42,20.42,0,0,1,15-6.54c11.18,0,20.24,8.82,20.24,19.69A19.66,19.66,0,0,1,106,211a19.29,19.29,0,0,0,5.21-13.15C111.25,187,102.19,178.19,91,178.19Z"/><path class="cls-13" d="M73.44,100.88l34.87-.43a1.26,1.26,0,0,1,1.22,1.71l-1.92,4.78-34.83.32Z"/><path class="cls-13" d="M94.22,140.22l36.89.3a1.26,1.26,0,0,1,1.21,1.66l-1.73,4.9-38.79-.47Z"/><path class="cls-13" d="M78.82,53l-.62,5.5a.94.94,0,0,1-.07.3L53.46,121.6a1.23,1.23,0,0,1-1.1.78l-3.23.13a1.21,1.21,0,0,1-1.2-1.66L76.44,52.42A1.24,1.24,0,0,1,78.82,53Z"/></svg>