<svg width="13" height="15" viewBox="0 0 13 15" fill="none" xmlns="http://www.w3.org/2000/svg">
<path d="M12.4766 7.26562V9.02344C12.4766 10.0872 12.1934 11.1319 11.6577 12.0447C11.494 12.3237 11.1349 12.4172 10.8559 12.2534C10.5767 12.0895 10.4832 11.7305 10.6471 11.4515C11.0773 10.7184 11.3047 9.87877 11.3047 9.02344V7.26562C11.3047 6.94256 11.0418 6.67969 10.7188 6.67969H2.28125C1.95818 6.67969 1.69531 6.94256 1.69531 7.26562V9.02344C1.69531 11.6727 3.85069 13.8281 6.5 13.8281C7.28335 13.8281 8.02996 13.6458 8.71912 13.2861C9.00603 13.1364 9.35999 13.2477 9.50968 13.5346C9.65937 13.8215 9.54813 14.1755 9.26134 14.3251C8.41517 14.7667 7.46027 15 6.5 15C3.20456 15 0.523438 12.3189 0.523438 9.02344V7.26562C0.523438 6.29631 1.31194 5.50781 2.28125 5.50781H3.24805V2.87029C3.24805 1.28757 4.56229 0 6.17773 0H6.79297C8.40842 0 9.72266 1.28757 9.72266 2.87029V3.75C9.72266 4.07364 9.46036 4.33594 9.13672 4.33594C8.81308 4.33594 8.55078 4.07364 8.55078 3.75V2.87029C8.55078 1.93382 7.76228 1.17188 6.79297 1.17188H6.17773C5.20842 1.17188 4.41992 1.93382 4.41992 2.87029V5.50781H10.7188C11.6881 5.50781 12.4766 6.29631 12.4766 7.26562ZM6.49897 12.0117C6.82249 12.0117 7.08491 11.7494 7.08491 11.4258V10.141C7.38497 9.94823 7.58398 9.61166 7.58398 9.22852C7.58398 8.62988 7.09864 8.14453 6.5 8.14453C5.90136 8.14453 5.41602 8.62988 5.41602 9.22852C5.41602 9.61075 5.61411 9.94663 5.91303 10.1396V11.4258C5.91303 11.7494 6.17533 12.0117 6.49897 12.0117Z" fill="url(#paint0_linear)"/>
<defs>
<linearGradient id="paint0_linear" x1="1.92969" y1="-9.48886e-08" x2="14.4422" y2="13.3556" gradientUnits="userSpaceOnUse">
<stop stop-color="#FFF1BF"/>
<stop offset="0.9999" stop-color="#EC458D"/>
<stop offset="1" stop-color="#474ED7"/>
</linearGradient>
</defs>
</svg>
