<svg width="21" height="21" viewBox="0 0 21 21" fill="none" xmlns="http://www.w3.org/2000/svg">
<g clip-path="url(#clip0)">
<path d="M20.4708 0.571193C19.9886 0.088618 19.2859 -0.0804116 18.637 0.129954L1.24874 5.76961C0.566689 5.99087 0.0927661 6.57086 0.0120164 7.28319C-0.0688935 7.99567 0.263077 8.66698 0.878313 9.03549C0.925096 9.06352 0.974603 9.08675 1.02603 9.10502L9.08578 11.9561L11.9229 20.0003C11.9412 20.0519 11.9646 20.1015 11.9926 20.1485C12.3243 20.7028 12.9018 21.0276 13.5342 21.0274C13.6036 21.0274 13.6736 21.0236 13.7439 21.0156C14.4563 20.9353 15.0366 20.462 15.2583 19.7803L15.9703 17.5914C16.1105 17.1606 15.8748 16.6977 15.444 16.5575C15.0135 16.4173 14.5505 16.653 14.4103 17.0839L13.6983 19.2727C13.6765 19.3396 13.63 19.3775 13.5602 19.3854C13.5084 19.3911 13.4655 19.378 13.432 19.3463L10.6702 11.516L15.2477 6.9384C15.568 6.61812 15.568 6.0987 15.2477 5.77842C14.9273 5.45799 14.4079 5.45799 14.0876 5.77842L9.50266 10.3632L1.68132 7.59641C1.64944 7.56293 1.6363 7.51999 1.64223 7.46808C1.65008 7.39822 1.68805 7.35192 1.75486 7.33013L19.1431 1.69063C19.2067 1.67013 19.263 1.68358 19.3102 1.73085C19.3575 1.77811 19.3709 1.83435 19.3503 1.89795L15.5845 13.4743C15.4443 13.9051 15.6798 14.368 16.1107 14.5082C16.5417 14.6485 17.0045 14.4129 17.1446 13.982L20.9105 2.40552C21.1216 1.7568 20.9531 1.05393 20.4708 0.571193Z" fill="white"/>
</g>
<defs>
<clipPath id="clip0">
<rect width="21" height="21" fill="white"/>
</clipPath>
</defs>
</svg>
