<svg width="25" height="28" viewBox="0 0 25 28" fill="none" xmlns="http://www.w3.org/2000/svg">
<path d="M23.9131 23.75H22.0652V18.75C22.0652 16.952 20.6024 15.4891 18.8044 15.4891H14.8421C14.2432 15.4891 13.7556 15.0018 13.7552 14.4028L13.7505 6.31549C14.9871 5.85174 15.8696 4.65745 15.8696 3.26087C15.8696 1.46283 14.4068 0 12.6087 0C10.8107 0 9.34784 1.46283 9.34784 3.26087C9.34784 4.54353 10.0923 5.6556 11.1718 6.18772L7.62463 9.10625C7.37371 9.31272 7.22827 9.62071 7.22827 9.94565V15.0543C7.22827 15.6547 7.7149 16.1413 8.31523 16.1413C8.91555 16.1413 9.40218 15.6547 9.40218 15.0543V10.4589L11.5779 8.66875L11.5813 14.4041C11.5823 16.201 13.0451 17.663 14.8421 17.663H18.8044C19.4037 17.663 19.8913 18.1507 19.8913 18.75V24.837C19.8913 25.4373 20.3779 25.9239 20.9783 25.9239H23.9131C24.5134 25.9239 25 25.4373 25 24.837C25 24.2366 24.5134 23.75 23.9131 23.75ZM12.6087 4.34783C12.0094 4.34783 11.5217 3.86022 11.5217 3.26087C11.5217 2.66152 12.0094 2.17391 12.6087 2.17391C13.2081 2.17391 13.6957 2.66152 13.6957 3.26087C13.6957 3.86022 13.2081 4.34783 12.6087 4.34783Z" fill="#B4B4B4"/>
<path d="M8.75 25.6523C5.12391 25.6523 2.17391 22.7023 2.17391 19.0762C2.17391 16.8193 3.31696 14.8247 5.05435 13.6401V11.146C2.07147 12.5415 0 15.5714 0 19.0762C0 23.9009 3.92527 27.8262 8.75 27.8262C13.3184 27.8262 17.0797 24.3069 17.4666 19.8371H15.2818C14.9034 23.106 12.1187 25.6523 8.75 25.6523Z" fill="#B4B4B4"/>
</svg>
