<svg xmlns="http://www.w3.org/2000/svg" width="256" height="256"><path fill-opacity=".027" d="M0 128.004v128.004l128.25-.254 128.25-.254.254-127.75L257.008 0H0v128.004m.485.496c0 70.4.119 99.053.265 63.672.146-35.38.146-92.98 0-128C.604 29.153.485 58.1.485 128.5" fill="#1976D2" fill-rule="evenodd"/><path fill-opacity=".158" d="M115 66.666C93.33 70.075 77.373 78.41 62.808 93.928c-16.119 17.175-23.388 34.171-25.391 59.367l-.699 8.794 7.891-.294 7.891-.295.632-9.682C55.269 119.085 77.155 91.783 108 83.373c8.962-2.443 29.979-2.476 39-.06 15.436 4.134 29.082 13.025 39.129 25.497 8.873 11.015 15.871 27.065 15.871 36.4 0 2.762-.063 2.79-6.392 2.79h-6.393l-1.763-7.195c-6.661-27.18-28.766-45.975-55.86-47.494-11.384-.638-20.901 1.265-31.401 6.279-6.087 2.907-9.465 5.471-16.196 12.292-12.428 12.593-17.229 23.368-18.654 41.868l-.636 8.25h43.021l.519-6.46c.992-12.365 7.884-19.466 18.94-19.518 11.142-.052 18.002 6.864 19.607 19.769l.711 5.709 7.869.294 7.87.294-.676-5.794c-2.028-17.394-11.461-30.727-24.302-34.351-7.045-1.988-19.977-.808-26.587 2.426-6.757 3.306-12.731 9.811-15.791 17.192L93.632 147H81.108l1.541-5.25c2.376-8.093 6.135-14.24 12.313-20.132 19.328-18.436 48.066-18.093 66.538.793 8.746 8.942 14.443 22.385 14.485 34.185l.015 4.095 12.75.651c7.012.357 16.527.652 21.143.654l8.393.004-.677-9.833c-1.701-24.688-10.332-43.927-27.336-60.931-12.322-12.322-28.501-20.696-45.821-23.716-7.946-1.386-23.251-1.83-29.452-.854M37 180v10h2.5c2.19 0 2.5-.433 2.5-3.5 0-1.925.413-3.5.918-3.5.506 0 1.892 1.575 3.082 3.5 1.507 2.439 2.896 3.5 4.582 3.5 3.026 0 3.014-.352-.149-4.499l-2.568-3.366 2.068-2.068c4.705-4.705.579-10.067-7.747-10.067H37v10m20.923-7.077c-5.536 5.536-3.314 14.981 4.044 17.185 3.079.923 4.368.827 7.251-.541C79.048 184.902 75.835 170 65 170c-3.258 0-4.784.631-7.077 2.923M79 180c0 9.333.133 10 2 10 1.783 0 2-.667 2-6.14v-6.139l4.75 6.094c2.612 3.352 5.537 6.115 6.5 6.14 1.553.04 1.75-1.081 1.75-9.955 0-9.252-.146-10-1.952-10-1.688 0-1.993.818-2.25 6.041l-.298 6.042-4.5-6.02c-2.475-3.312-5.287-6.03-6.25-6.042-1.551-.019-1.75 1.114-1.75 9.979m22 0v10h6.364c5.542 0 6.704-.34 9-2.636 3.861-3.862 3.731-10.423-.287-14.441-2.589-2.589-3.617-2.923-9-2.923H101v10m30 .07c0 9.87.044 10.063 2.25 9.75 1.752-.249 2.258-.984 2.286-3.317.023-1.901.572-3.034 1.5-3.098.805-.055 2.251-.169 3.214-.253 2.61-.227 5.75-3.82 5.75-6.579 0-3.755-4.346-6.573-10.135-6.573H131v10.07m19.923-7.147c-5.604 5.604-2.582 15.895 5.12 17.436 10.459 2.091 16.885-11.035 8.751-17.879-4.28-3.602-10.009-3.419-13.871.443M172 180v10h5v-20h-5v10m10 0c0 9.248.147 10 1.95 10 1.669 0 1.993-.818 2.25-5.677l.3-5.677 4.372 5.677c2.569 3.336 5.146 5.677 6.25 5.677 1.712 0 1.878-.882 1.878-10 0-9.252-.146-10-1.952-10-1.692 0-1.992.818-2.25 6.14l-.298 6.14-4.816-6.14c-6.863-8.748-7.684-8.336-7.684 3.86m20-8c0 1.556.667 2 3 2h3v8c0 7.333.167 8 2 8s2-.667 2-8v-8h3c2.333 0 3-.444 3-2 0-1.833-.667-2-8-2s-8 .167-8 2m-160 4.57c0 2.092.418 2.51 2.25 2.25 1.446-.206 2.364-1.124 2.57-2.57.26-1.832-.158-2.25-2.25-2.25-2.093 0-2.57.477-2.57 2.57m18.557-.347c-3.967 5.663.591 12.192 6.85 9.812 3.23-1.228 4.355-6.223 2.158-9.576-2.113-3.225-6.828-3.349-9.008-.236M106 180.5c0 6.976.433 7.427 5.342 5.56 5.723-2.176 3.784-12.06-2.365-12.06H106v6.5m29.5-3.5c0 2.702.31 3.048 2.5 2.792 1.922-.224 2.5-.87 2.5-2.792 0-1.922-.578-2.568-2.5-2.792-2.19-.256-2.5.09-2.5 2.792m18.558-1.569c-2.083 2.509-1.604 7.708.896 9.733 2.909 2.355 4.565 2.317 7.046-.164 2.499-2.499 2.584-7.161.171-9.345-2.247-2.034-6.514-2.152-8.113-.224" fill="#1976D2" fill-rule="evenodd"/><path fill-opacity=".316" d="M117.5 66.996c-20.977 2.273-37.895 10.27-52.278 24.713-16.703 16.772-25.551 36.358-26.897 59.541L37.7 162H51.705l.667-8.678c1.74-22.634 9.356-38.466 25.969-53.98 8.809-8.226 18.529-13.459 30.609-16.475 7.187-1.795 10.476-2.039 22-1.633 11.413.402 14.875.923 21.951 3.304 11.243 3.783 20.837 10.274 31.099 21.041 4.675 4.905 7.882 8.131 7.128 7.17-1.164-1.482-1.164-2.016 0-3.499 1.219-1.555 1.192-1.609-.245-.488-1.303 1.017-1.821 1.017-2.662 0-.799-.966-.319-1.289 2.054-1.378 2.004-.075 3.893-1.041 5.35-2.735l2.253-2.619 2.663 3.235c2.88 3.5 2.316 1.923-.886-2.476-1.085-1.491-2.421-2.434-2.969-2.095-.547.338-.694.128-.326-.467 1.123-1.817-10.11-12.932-19.246-19.043-4.747-3.175-11.865-6.972-15.818-8.437-13.256-4.914-30.558-7.186-43.796-5.751m-4.775 28.57c-20.092 4.868-37.371 20.895-43.673 40.51-1.869 5.816-4.285 23.425-3.434 25.029.176.332 9.467.697 20.646.81l20.326.206 1.259-7.493c2.193-13.05 7.096-17.884 18.735-18.472 6.702-.339 7.886-.111 11.351 2.182 4.638 3.07 8.684 10.784 9.654 18.412l.669 5.25H162v-4.911c0-6.409-2.982-15.827-6.987-22.068-6.407-9.985-16.643-14.716-29.703-13.728-15.434 1.167-25.931 9.701-30.7 24.957-.449 1.436-1.739 1.75-7.19 1.75h-6.643l.672-3.75c2.578-14.394 15.695-28.819 31.302-34.423 8.057-2.893 22.457-2.917 30.749-.051 3.839 1.327 5.301 1.561 4.059.649-1.068-.784-1.495-1.425-.949-1.425.545 0 1.975-2.025 3.178-4.5 1.202-2.475 2.754-4.518 3.449-4.54.695-.022.057-.695-1.417-1.495-7.8-4.236-27.538-5.699-39.095-2.899M38 179.873c0 8.335.265 10.127 1.5 10.127 1.043 0 1.5-1.049 1.5-3.441 0-4.993 1.57-5.206 4.727-.642 1.825 2.637 3.547 4.02 5.037 4.045l2.264.038-2.656-4.014c-2.48-3.748-2.547-4.135-1.014-5.829 2.065-2.282 2.121-6.514.109-8.185-.843-.699-3.768-1.487-6.5-1.749L38 169.746v10.127m21.775-8.314C51.05 176.294 54.776 190 64.788 190c5.074 0 8.93-2.977 9.789-7.56 1.682-8.962-6.821-15.212-14.802-10.881m19.892-.892c-.367.366-.667 4.866-.667 10 0 8.59.155 9.333 1.952 9.333 1.692 0 1.992-.818 2.25-6.14l.298-6.14 4.816 6.14c6.871 8.759 7.684 8.342 7.684-3.933 0-8.837-.203-10.034-1.655-9.75-1.338.261-1.641 1.517-1.581 6.573.04 3.438-.077 6.25-.259 6.25-.183 0-2.66-2.925-5.505-6.5-5.103-6.413-6.022-7.144-7.333-5.833m21.997.083c-.249.412-.388 4.8-.309 9.75l.145 9 5.776.301c5.268.274 6.038.038 8.75-2.673 4.999-4.999 3.275-13.782-3.145-16.02-3.619-1.261-10.537-1.482-11.217-.358m30.086-.18c-.412.42-.75 4.963-.75 10.097 0 8.666.143 9.333 2 9.333 1.619 0 2-.667 2-3.5 0-3.302.189-3.5 3.345-3.5 5.813 0 9.232-6.851 5.355-10.729-1.67-1.67-10.715-2.957-11.95-1.701m21.036.929c-3.702 2.083-5.563 8.212-3.791 12.489 4.141 9.998 19.005 6.982 19.005-3.855 0-7.784-8.327-12.509-15.214-8.634M173 180c0 8.222.267 10 1.5 10s1.5-1.778 1.5-10-.267-10-1.5-10-1.5 1.778-1.5 10m9 0c0 8.083.279 10 1.454 10 1.094 0 1.528-1.618 1.75-6.524l.296-6.525 5 6.488c2.777 3.603 5.794 6.504 6.786 6.524 1.615.033 1.759-.901 1.5-9.713-.231-7.873-.575-9.75-1.786-9.75-1.116 0-1.628 1.57-2 6.131l-.5 6.132-4.988-6.382c-2.743-3.509-5.555-6.381-6.25-6.381-.932 0-1.262 2.615-1.262 10m20.5-9c-.994 1.608.425 3 3.059 3 2.385 0 2.441.185 2.441 8 0 7.333.167 8 2 8s2-.667 2-8v-8h3c2.333 0 3-.444 3-2 0-1.821-.667-2-7.441-2-4.093 0-7.719.45-8.059 1m-160.833 2.667c-1.029 1.029-.788 5.14.342 5.839 1.448.895 4.71-.332 5.356-2.015.99-2.578-3.758-5.765-5.698-3.824m21.333.037C56.706 175.911 58.232 187 64.829 187c4.842 0 8.028-7.255 4.921-11.208-1.462-1.86-4.617-2.836-6.75-2.088m42.743-.114c-.409.409-.743 3.593-.743 7.077V187h3.443c5.474 0 8.664-6.79 5.307-11.295-1.377-1.849-6.832-3.289-8.007-2.115M135 176.5c0 2.986.338 3.5 2.3 3.5 2.23 0 4.7-1.644 4.7-3.129 0-1.441-3.183-3.871-5.071-3.871-1.538 0-1.929.71-1.929 3.5m19.517-1.108c-3.03 3.03-3.238 6.887-.517 9.608 4.074 4.074 10 1.326 10-4.638 0-6.22-5.402-9.051-9.483-4.97" fill="#1976D2" fill-rule="evenodd"/><path fill-opacity=".664" d="M63.551 94.14c-4.287 4.556-7.433 8.724-7.148 9.468.28.73.01 1.637-.601 2.014-.713.441-.849.184-.38-.717.402-.773-.255-.28-1.46 1.095-7.129 8.138-14.313 29.358-15.568 45.981L37.713 161h14.014l.553-9.25c.677-11.325 2.652-18.941 7.457-28.75 2.021-4.125 3.634-8.045 3.586-8.711-.048-.666.393-1.116.98-1 .587.116 1.181-1.017 1.32-2.517.194-2.081-.621-3.469-3.435-5.854-3.529-2.991-2.569-2.751 2.812.703 2.471 1.586 2.476 1.583.446-.258-1.13-1.025-3.146-2.587-4.48-3.472l-2.426-1.609 6.894-7.141C69.226 89.214 72.076 86 71.768 86c-.308 0-4.006 3.663-8.217 8.14m10.359 7.61c-5.131 5.337-10.724 12.142-6.781 8.25 3.825-3.775 13.13-14 12.742-14-.239 0-2.921 2.588-5.961 5.75m46.285 20.256c-10.987 2.319-20.752 10.741-23.851 20.573L94.635 148l-5.568.116c-3.062.064-4.862.306-4.001.538 1.268.341 1.445 1.366.929 5.384-.414 3.225-.262 5.012.434 5.104.589.078-.729.464-2.929.858-2.627.47.673.765 9.612.858l13.613.142.666-5.667c.886-7.54 4.758-14.486 9.588-17.201 7.45-4.187 16.385-3.78 22.492 1.024 3.544 2.788 7.519 10.966 8.225 16.922l.583 4.922H162v-3.29c0-4.455-2.533-13.874-5.066-18.84-3.178-6.228-9.439-12.411-14.986-14.797-5.737-2.468-15.47-3.393-21.753-2.067M61.5 170.934c-8.626 3.579-7.93 16.957.969 18.626 7.355 1.38 13.566-4.573 12.036-11.538-1.161-5.287-8.157-9.099-13.005-7.088m93.59-.061c-5.218 1.46-7.967 9.251-5.133 14.546 2.526 4.72 9.934 6.028 14.371 2.538 5.427-4.269 4.276-13.971-1.968-16.58-3.573-1.493-3.702-1.502-7.27-.504M38 180.5c0 7.778.272 9.5 1.5 9.5 1.083 0 1.5-1.111 1.5-4 0-2.716.439-4 1.367-4 .752 0 2.558 1.8 4.014 4 1.456 2.2 3.316 4 4.133 4 1.999 0 1.895-.505-.979-4.734-2.427-3.571-2.434-3.648-.5-5.003 1.081-.757 1.965-2.444 1.965-3.748 0-3.77-2.554-5.515-8.071-5.515H38v9.5m42 0c0 5.667.404 9.5 1 9.5.564 0 1-2.833 1-6.5 0-3.575.338-6.489.75-6.475.412.014 2.946 2.939 5.629 6.5C95.155 192.518 96 192.182 96 180.5c0-7.645-.284-9.5-1.454-9.5-1.094 0-1.528 1.618-1.75 6.524l-.296 6.525-5-6.488c-2.75-3.568-5.562-6.504-6.25-6.524-.915-.027-1.25 2.51-1.25 9.463m22 0v9.5h4.55c6.137 0 10.022-2.173 11.411-6.382C120.442 176.1 116.159 171 107.365 171H102v9.5m30 0c0 7.778.272 9.5 1.5 9.5 1.048 0 1.5-1.056 1.5-3.5 0-3.16.27-3.5 2.777-3.5 4.098 0 7.223-2.59 7.223-5.985 0-4.262-2.352-6.015-8.071-6.015H132v9.5m41 0c0 7.778.272 9.5 1.5 9.5s1.5-1.722 1.5-9.5c0-7.778-.272-9.5-1.5-9.5s-1.5 1.722-1.5 9.5m9 0c0 7.645.284 9.5 1.454 9.5 1.099 0 1.527-1.642 1.75-6.714l.296-6.715 5.336 6.715c2.935 3.693 5.747 6.714 6.25 6.714.503 0 .914-4.275.914-9.5 0-6.932-.338-9.5-1.25-9.502-.899-.001-1.155 1.684-.911 6 .186 3.301-.079 6.002-.59 6.002-.51 0-3.025-2.7-5.587-6-6.682-8.604-7.662-8.157-7.662 3.5m21-8.566c0 .513 1.168 1.076 2.595 1.25 2.534.309 2.598.501 2.75 8.303.131 6.738.429 8.04 1.905 8.323 1.557.3 1.75-.61 1.75-8.237V173h3c1.65 0 3-.45 3-1 0-.578-3.167-1-7.5-1-4.125 0-7.5.42-7.5.934m-162 4.632c0 3.271.22 3.541 2.649 3.25 5.546-.662 5.301-6.816-.271-6.816-2.059 0-2.378.478-2.378 3.566m20.223-2.009c-2.702 1.892-3.094 8.43-.652 10.872 2.122 2.121 6.744 1.986 8.774-.258 2.476-2.736 2.157-8.706-.568-10.614C67.555 173.701 65.855 173 65 173s-2.555.701-3.777 1.557M105 180v7h3.345c4.27 0 6.655-2.607 6.655-7.272 0-4.171-2.745-6.728-7.223-6.728-2.772 0-2.777.014-2.777 7m30-3.5c0 3.204.248 3.5 2.933 3.5 2.077 0 3.122-.597 3.582-2.048.836-2.633-1.102-4.952-4.137-4.952-2.051 0-2.378.481-2.378 3.5m19-1.5c-4.211 4.211-1.554 12.02 4.079 11.985 6.276-.04 8.666-7.09 4.148-12.235-2.046-2.329-5.76-2.217-8.227.25" fill="#1976D2" fill-rule="evenodd"/></svg>